<svg width="50" height="50" viewBox="0 0 50 50" fill="none" xmlns="http://www.w3.org/2000/svg">
<g id="Frame" clip-path="url(#clip0_1_802)">
<g id="SVGRepo_iconCarrier">
<g id="Group">
<path id="Vector" d="M10.0301 28.5029H6.4447C4.91685 28.5029 3.67383 29.746 3.67383 31.274V47.2295C3.67383 48.7573 4.91685 50.0005 6.4447 50.0005H10.0301C11.5579 50.0005 12.8012 48.7575 12.8012 47.2295V31.274C12.8012 29.746 11.5579 28.5029 10.0301 28.5029ZM10.2505 47.2295C10.2505 47.3511 10.1517 47.4499 10.0301 47.4499H6.4447C6.32333 47.4499 6.22449 47.3511 6.22449 47.2295V31.274C6.22449 31.1524 6.32333 31.0536 6.4447 31.0536H10.0301C10.1517 31.0536 10.2505 31.1524 10.2505 31.274V47.2295Z" fill="white"/>
<path id="Vector_2" d="M21.0983 34.1738H17.5129C15.9851 34.1738 14.7418 35.4169 14.7418 36.9449V47.2288C14.7418 48.7566 15.9851 49.9998 17.5129 49.9998H21.0983C22.6261 49.9998 23.8692 48.7568 23.8692 47.2288V36.9449C23.8692 35.4169 22.6263 34.1738 21.0983 34.1738ZM21.3185 47.2288C21.3185 47.3503 21.2197 47.4492 21.0983 47.4492H17.5129C17.3913 47.4492 17.2925 47.3503 17.2925 47.2288V36.9449C17.2925 36.8233 17.3913 36.7245 17.5129 36.7245H21.0983C21.2197 36.7245 21.3185 36.8233 21.3185 36.9449V47.2288Z" fill="white"/>
<path id="Vector_3" d="M32.1666 33.4561H28.5813C27.0534 33.4561 25.8102 34.6991 25.8102 36.2271V47.2292C25.8102 48.7571 27.0534 50.0003 28.5813 50.0003H32.1666C33.6945 50.0003 34.9375 48.7573 34.9375 47.2292V36.2271C34.9375 34.6993 33.6945 33.4561 32.1666 33.4561ZM32.3869 47.2292C32.3869 47.3508 32.288 47.4496 32.1666 47.4496H28.5813C28.4597 47.4496 28.3608 47.3508 28.3608 47.2292V36.2271C28.3608 36.1056 28.4597 36.0067 28.5813 36.0067H32.1666C32.288 36.0067 32.3869 36.1056 32.3869 36.2271V47.2292Z" fill="white"/>
<path id="Vector_4" d="M43.5556 29.2207H39.9702C38.4423 29.2207 37.1991 30.4637 37.1991 31.9918V47.229C37.1991 48.7569 38.4423 50.0001 39.9702 50.0001H43.5556C45.0834 50.0001 46.3264 48.7571 46.3264 47.229V31.9918C46.3264 30.4637 45.0834 29.2207 43.5556 29.2207ZM43.7758 47.2288C43.7758 47.3504 43.6769 47.4492 43.5556 47.4492H39.9702C39.8486 47.4492 39.7498 47.3504 39.7498 47.2288V31.9916C39.7498 31.87 39.8486 31.7712 39.9702 31.7712H43.5556C43.6769 31.7712 43.7758 31.87 43.7758 31.9916V47.2288Z" fill="white"/>
<path id="Vector_5" d="M24.5225 0C15.6651 0 8.45886 7.20605 8.45886 16.0634C8.45886 24.9208 15.6649 32.1269 24.5223 32.1269C33.3797 32.1269 40.5855 24.9208 40.5855 16.0634C40.5855 7.20605 33.3799 0 24.5225 0ZM24.5225 29.5762C17.0714 29.5762 11.0097 23.5143 11.0097 16.0634C11.0097 8.61252 17.0714 2.55066 24.5225 2.55066C31.9734 2.55066 38.0351 8.61252 38.0351 16.0634C38.0351 23.5143 31.9732 29.5762 24.5225 29.5762Z" fill="white"/>
<path id="Vector_6" d="M27.3565 11.9541C27.3565 12.6583 27.9276 13.2294 28.6318 13.2294C29.336 13.2294 29.9072 12.6583 29.9072 11.9541C29.9072 9.42449 28.1532 7.29766 25.7978 6.72333V5.3515C25.7978 4.64731 25.2267 4.07617 24.5225 4.07617C23.8183 4.07617 23.2472 4.64731 23.2472 5.3515V6.72333C20.8916 7.29766 19.1376 9.42427 19.1376 11.9541C19.1376 14.4839 20.8916 16.6106 23.2472 17.1849V22.7003C22.324 22.2324 21.6883 21.2766 21.6883 20.1728C21.6883 19.4686 21.1172 18.8974 20.413 18.8974C19.7088 18.8974 19.1376 19.4686 19.1376 20.1728C19.1376 22.7026 20.8916 24.8292 23.2472 25.4035V26.7754C23.2472 27.4796 23.8183 28.0507 24.5225 28.0507C25.2267 28.0507 25.7978 27.4796 25.7978 26.7754V25.4035C28.1532 24.8292 29.9072 22.7026 29.9072 20.1728C29.9072 17.6429 28.1532 15.5163 25.7978 14.942V9.42682C26.7208 9.89466 27.3565 10.8505 27.3565 11.9541ZM21.6883 11.9541C21.6883 10.8503 22.324 9.89445 23.2472 9.42661V14.4816C22.3238 14.014 21.6883 13.0579 21.6883 11.9541ZM27.3565 20.173C27.3565 21.2768 26.721 22.2326 25.7978 22.7003V17.6457C26.7208 18.1133 27.3565 19.0694 27.3565 20.173Z" fill="white"/>
</g>
</g>
</g>
<defs>
<clipPath id="clip0_1_802">
<rect width="50" height="50" fill="white"/>
</clipPath>
</defs>
</svg>
