<svg width="316" height="369" viewBox="0 0 316 369" fill="none" xmlns="http://www.w3.org/2000/svg">
<path opacity="0.6" d="M59.0281 0.0883609L295.667 0.445639C306.713 0.462316 315.654 9.43015 315.637 20.4758L315.389 184.476L315.376 289.317C315.375 295.431 312.578 301.209 307.782 305.002L305.612 306.719C304.536 307.569 303.376 308.307 302.15 308.92L301.217 309.386C298.44 310.775 295.378 311.498 292.273 311.498L287.494 311.498L280.978 311.498C278.376 311.498 275.792 311.937 273.337 312.797C264.381 315.935 258.253 324.23 257.886 333.713L257.547 342.498C258.097 356.548 246.856 368.238 232.795 368.238L157.833 368.238L20.5539 368.031C9.50828 368.014 0.567491 359.047 0.584168 348.001L1.02433 56.4665L0.756462 24.5176C0.645181 11.2469 11.3254 0.40501 24.5963 0.316918L59.0281 0.0883609Z" fill="#C4C4C4"/>
</svg>
